<?xml version="1.0" encoding="UTF-8"?>
<svg version="1.1" xmlns="http://www.w3.org/2000/svg" width="256" height="256">
<path d="M0 0 C0.83194885 0.00054382 1.66389771 0.00108765 2.52105713 0.00164795 C14.77918846 0.03843971 26.38841595 0.51991765 38.125 4.375 C39.13747803 4.68848389 39.13747803 4.68848389 40.17041016 5.00830078 C54.93329483 9.66200823 68.50328095 17.14154091 80.125 27.375 C81.35089844 28.40367188 81.35089844 28.40367188 82.6015625 29.453125 C105.31520132 49.00232497 119.48604836 77.59817257 122.125 107.375 C122.13515502 109.04163573 122.13677392 110.70837492 122.125 112.375 C112.10393871 110.87605618 102.35062731 108.23572313 92.54994392 105.71883774 C89.41755838 104.91555801 86.28358354 104.11879067 83.14903259 103.32400513 C74.24395456 101.06587332 65.33990044 98.80395323 56.44165039 96.51904297 C50.9790757 95.11685345 45.51308993 93.72872314 40.04467583 92.34949112 C37.97390091 91.82441563 35.90442129 91.29420201 33.83635139 90.75857162 C14.30862684 85.09626336 14.30862684 85.09626336 -4.62109375 90.0859375 C-10.87142418 96.43376008 -12.44847886 103.61815253 -12.51843262 112.29824829 C-12.50203735 113.51209198 -12.48564209 114.72593567 -12.46875 115.9765625 C-12.46879028 117.25300629 -12.46883057 118.52945007 -12.46887207 119.84457397 C-12.46353413 122.52974512 -12.4487466 125.21269255 -12.41699219 127.89746094 C-12.37723637 131.31799038 -12.37296328 134.73741952 -12.38045502 138.15813637 C-12.3842813 141.45186975 -12.36342501 144.74539808 -12.34375 148.0390625 C-12.34354858 149.25695465 -12.34334717 150.4748468 -12.34313965 151.72964478 C-12.22541672 160.22558915 -11.84162058 166.7815387 -5.63623047 172.99584961 C0.22963691 177.70297474 7.31582788 179.92915718 14.3046875 182.44140625 C15.81084952 182.99783264 17.31636028 183.55602466 18.82125854 184.11585999 C21.9816863 185.2889796 25.1453643 186.45263511 28.31188965 187.60919189 C33.01568175 189.33007514 37.70542981 191.08675491 42.39160156 192.85498047 C43.53440645 193.28604064 43.53440645 193.28604064 44.70029831 193.7258091 C46.24030966 194.30671475 47.78030676 194.88765817 49.32028961 195.46863937 C53.18675753 196.92526659 57.05621391 198.3738962 60.92578125 199.82226562 C61.69200428 200.10909399 62.45822731 200.39592236 63.24766922 200.69144249 C64.79958176 201.27235398 66.35150618 201.85323376 67.90344238 202.43408203 C71.86432519 203.91681171 75.82471932 205.4008455 79.78515625 206.88476562 C85.60276786 209.06441418 91.42063795 211.24337068 97.23876953 213.42163086 C105.20198392 216.40305431 113.16363258 219.3886486 121.125 222.375 C119.51902581 233.25993617 114.00982129 241.62537227 105.59765625 248.65234375 C93.94037697 256.77376581 80.54869081 258.11382597 66.74930191 256.01338959 C61.14057771 254.88268167 55.66518137 253.27912685 50.17578125 251.6796875 C48.38063913 251.17687514 46.58486208 250.67632504 44.78851318 250.17784119 C39.99031493 248.84009684 35.20092327 247.47313017 30.4127388 246.10004044 C25.39448831 244.66630146 20.36879891 243.25915817 15.34350586 241.8503418 C9.13926992 240.10953373 2.93572415 238.36644654 -3.26451111 236.61143494 C-16.2910848 232.92599252 -29.33629662 229.3186627 -42.40642357 225.79080963 C-45.20610031 225.03497711 -48.00527027 224.27729703 -50.80427551 223.51898193 C-61.38538426 220.65168494 -61.38538426 220.65168494 -71.97201538 217.80487061 C-76.03352319 216.71692117 -80.0915188 215.61669739 -84.14730072 214.50760078 C-85.6171413 214.1080011 -87.08818329 213.71278672 -88.5605545 213.32261467 C-106.20175267 208.64346756 -119.20068758 202.25349104 -128.875 186.375 C-132.73135864 177.91982287 -134.03322019 170.20059115 -134.078125 161 C-134.08382507 160.08025391 -134.08952515 159.16050781 -134.09539795 158.21289062 C-134.10483704 156.25945172 -134.1113776 154.30599697 -134.11523438 152.35253906 C-134.12478535 149.44044686 -134.15575162 146.52910946 -134.1875 143.6171875 C-134.3367804 117.29375032 -129.4845736 93.13736496 -118.64355469 69.15820312 C-117.76873555 67.19801563 -117.76873555 67.19801563 -116.875 64.375 C-117.54088135 63.71697388 -117.54088135 63.71697388 -118.22021484 63.0456543 C-120.23277029 61.05390386 -122.2414162 59.05825526 -124.25 57.0625 C-124.94867188 56.37220703 -125.64734375 55.68191406 -126.3671875 54.97070312 C-127.37265625 53.97006836 -127.37265625 53.97006836 -128.3984375 52.94921875 C-129.01638184 52.33651123 -129.63432617 51.72380371 -130.27099609 51.0925293 C-132.8370326 48.34487833 -133.83755133 46.71827949 -134.25 42.9375 C-133.8038652 38.69921939 -133.01661808 38.07654046 -129.875 35.375 C-92.25607607 11.1427043 -44.38750495 -0.11007648 0 0 Z M-87.625 121.36328125 C-91.68260971 127.89349687 -94.16533932 134.65929752 -92.875 142.375 C-90.46985152 151.15784558 -86.28193708 157.67203528 -78.375 162.3125 C-71.227593 165.55251432 -63.45475471 165.77231763 -55.96875 163.48828125 C-48.33067551 160.02584085 -43.88622475 155.0837325 -40.5 147.5 C-37.66083879 139.6028373 -38.21413444 133.3693864 -41.625 125.73046875 C-45.02105977 119.33101862 -49.33760072 115.2677066 -55.96875 112.26171875 C-67.73903703 108.67051558 -80.0290986 111.41523993 -87.625 121.36328125 Z " fill="#FFFFFF" transform="translate(133.875,-0.375)"/>
<path d="M0 0 C34.48460821 8.04640858 34.48460821 8.04640858 45.1796875 10.74609375 C46.78565796 11.14834167 46.78565796 11.14834167 48.42407227 11.55871582 C52.24171647 12.51564834 56.05830908 13.47677237 59.875 14.4375 C68.49625 16.603125 77.1175 18.76875 86 21 C86 48.06 86 75.12 86 103 C80.06120459 101.21836138 74.40100035 99.49341367 68.6418457 97.3203125 C67.97863312 97.07110046 67.31542053 96.82188843 66.6321106 96.56512451 C64.47875621 95.75500874 62.32724242 94.94012886 60.17578125 94.125 C58.65993989 93.55329913 57.14400286 92.9818519 55.62797546 92.41064453 C52.46790989 91.21920041 49.30869792 90.02553035 46.15014648 88.83007812 C42.11679566 87.30360369 38.08181475 85.781496 34.04624653 84.26089478 C30.92210989 83.08341558 27.79860702 81.90426311 24.67531395 80.72454834 C23.18800757 80.16285894 21.70056399 79.60153272 20.21297646 79.04058838 C18.13136755 78.2552158 16.05056332 77.46774782 13.9699707 76.6796875 C12.78989944 76.23351074 11.60982819 75.78733398 10.39399719 75.32763672 C6.89890629 73.96045497 3.44953138 72.47837059 0 71 C0 47.57 0 24.14 0 0 Z " fill="#FFFFFF" transform="translate(170,105)"/>
<path d="M0 0 C4.3125 0.5 4.3125 0.5 13.3125 3.5 C13.3125 25.94 13.3125 48.38 13.3125 71.5 C8.67785721 70.72755953 5.37009134 69.92535108 1.125 68.1875 C-0.41220703 67.57455078 -0.41220703 67.57455078 -1.98046875 66.94921875 C-4.93083293 65.36973086 -5.9801549 64.33805707 -7.6875 61.5 C-8.07518005 58.926651 -8.07518005 58.926651 -8.09155273 55.98461914 C-8.10423691 54.87989761 -8.11692108 53.77517609 -8.12998962 52.63697815 C-8.12705399 51.44837692 -8.12411835 50.2597757 -8.12109375 49.03515625 C-8.1263356 47.80969589 -8.13157745 46.58423553 -8.13697815 45.32164001 C-8.14340145 42.73014076 -8.14205742 40.13861237 -8.13354492 37.54711914 C-8.1250397 33.58101481 -8.15378767 29.61635247 -8.18554688 25.65039062 C-8.18715906 23.13281293 -8.18658103 20.61523269 -8.18359375 18.09765625 C-8.19482773 16.91107925 -8.20606171 15.72450226 -8.21763611 14.50196838 C-8.14847041 6.33362202 -8.14847041 6.33362202 -5.88696289 2.24389648 C-3.6875 0.5 -3.6875 0.5 0 0 Z " fill="#FFFFFF" transform="translate(142.6875,98.5)"/>
<path d="M0 0 C3.66008184 3.32734712 4.91464398 6.49501052 5.4375 11.375 C4.91464398 16.25498948 3.66008184 19.42265288 0 22.75 C-5.25611307 24.76297947 -10.61888693 24.76297947 -15.875 22.75 C-19.53508184 19.42265288 -20.78964398 16.25498948 -21.3125 11.375 C-20.78964398 6.49501052 -19.53508184 3.32734712 -15.875 0 C-10.61888693 -2.01297947 -5.25611307 -2.01297947 0 0 Z " fill="#FFFFFF" transform="translate(75.9375,126.125)"/>
</svg>
