<?xml version="1.0" encoding="utf-8" ?><svg xmlns="http://www.w3.org/2000/svg" xmlns:xlink="http://www.w3.org/1999/xlink" width="476" height="524" viewBox="0 0 476 524"><path d="M419.172 165.891C419.989 165.851 420.807 165.826 421.625 165.816C424.455 165.803 425.813 166.11 427.832 168.088C429.954 175.654 426.25 179.967 421.318 185.258C408.596 198.905 393.472 210.266 378.2 220.886C376.102 222.345 373.792 223.844 371.838 225.478L371.575 225.7C371.571 227.439 371.565 229.21 371.353 230.938C369.949 242.385 348.166 259.755 339.173 266.314C335.604 268.917 331.221 271.13 328.014 274.13C325.869 276.136 325.361 279.296 323.741 281.679C321.023 285.678 316.494 289.216 312.689 292.198C299.333 302.669 280.731 313.064 264.94 319.296C257.955 322.052 250.868 324.199 243.665 326.277C240.486 327.194 237.306 328.223 234.087 328.984C230.204 329.903 226.168 330.464 222.24 331.202C211.893 333.147 201.604 334.601 191.066 334.938C186.215 335.094 181.094 336.164 176.26 335.547C174.564 335.331 174.146 335.009 173.103 333.668C155.854 344.546 138.173 355.333 119.236 363.312C109.642 367.354 90.3446 374.555 79.9745 370.452C76.6901 369.152 74.4762 365.899 73.1718 362.693C66.1444 367.352 52.4756 370.743 51.5639 358.833C50.8709 349.78 58.5488 334.558 63.0364 326.604C79.3894 297.621 102.278 272.291 126.621 249.812C129.796 246.88 133.028 244.724 135.76 241.312C125.294 247.524 104.912 254.451 92.6185 254.57C81.246 254.681 75.1505 248.641 75.2867 237.166C76.5513 223.398 84.1201 212.949 93.5731 203.353C108.942 187.753 130.036 176.137 151.421 171.486C159.135 170.345 167.417 170.27 175.136 171.413C178.205 171.867 180.463 174.198 180.345 177.291C180.218 180.599 178.706 182.131 175.476 182.716C169.026 183.884 162.234 183.185 155.74 184.343C140.887 187.511 123.588 198.406 112.176 208.32C105.814 213.931 99.5044 220.883 98.4028 229.635C98.0023 232.817 101.056 234.435 103.873 234.159C119.151 232.665 133.986 224.663 146.557 216.224C150.595 213.254 153.565 209.163 156.954 205.603C161.485 200.845 170.561 193.555 176.854 199.541C177.815 202.174 177.779 203.702 177.786 206.525C177.35 207.266 176.782 208.031 176.283 208.743C179.81 207.361 187.348 202.293 191.114 200.175C203.407 193.344 217.796 185.833 231.944 184.633C240.604 183.898 250.507 188.276 250.425 198.136C250.301 212.93 235.172 221.944 226.483 231.306L226.269 231.54C229.717 234.475 231.559 235.311 234.71 239.149C239.241 223.895 260.257 221.877 256.462 236.032C260.347 234.782 268.404 231.133 272.3 229.395L295.989 218.911C316.146 210.164 336.96 201.97 356.853 192.611L384.128 179.652C392.422 175.725 410.311 167.031 419.172 165.891ZM163.727 224.654C164.151 222.55 164.893 219.485 165.835 217.568C167.587 214.005 173.464 207.098 173.152 203.111C172.729 202.676 172.875 202.664 172.347 202.571C171.16 202.362 169.907 202.813 168.817 203.193C162.01 205.566 158.502 211.889 153.699 216.743C151.718 218.746 148.939 220.737 146.541 222.328C136.12 229.339 124.608 234.573 112.474 237.818C101.905 240.575 90.5403 239.673 95.1001 224.724C99.4424 210.489 116.564 198.855 128.532 191.374C131.831 189.311 136.338 187.358 140.004 185.196C147.724 182.462 152.112 179.754 160.949 179.245C164.336 179.051 173.663 179.473 175.933 177.872L175.936 177.459C173.726 175.692 168.753 175.725 166.05 175.553C156.568 174.952 149.031 176.897 140.162 179.911C117.808 186.468 83.9905 211.19 79.9716 235.76C76.4603 257.226 104.51 248.978 115.493 245.35C128.598 241.02 137.826 234.95 149.544 228.35C146.761 240.622 143.963 241.692 134.554 249.474C130.964 252.403 127.509 255.494 124.201 258.739C99.5675 282.937 77.0046 307.324 61.8651 338.806C54.1613 354.826 50.7408 372.248 74.498 356.87C77.6787 354.811 82.7123 350.524 85.3107 347.781L86.0086 348.484C84.6028 350.193 83.1726 351.901 81.9918 353.776C80.461 356.207 78.0955 360.155 78.8644 363.132C79.2182 364.501 80.1699 365.538 81.3862 366.217C85.7374 368.646 95.6933 366.79 100.315 365.502C130.988 356.955 174.086 330.423 197.685 309.326C205.68 302.287 212.904 294.418 219.233 285.851C223.267 280.407 226.524 274.255 229.35 268.113C230.31 266.025 230.645 263.568 231.86 261.614C233.612 258.798 263.688 246.503 268.828 244.225C279.078 239.682 289.515 235.634 299.833 231.264C314.945 224.944 329.932 218.332 344.787 211.431C361.351 203.881 377.54 195.623 394.142 188.213C398.577 186.234 401.786 184.085 406.632 183.117C401.851 188.767 395.932 193.497 390.209 198.143C370.565 214.093 344.925 231.386 321.134 240.158C304.981 246.114 288.17 250.207 272.73 258.03C269.717 259.557 266.835 260.968 264.21 263.116C262.333 264.652 259.513 267.097 259.261 269.647C260.107 271.955 264.739 270.68 266.642 270.283C290.006 265.411 309.909 250.436 332.904 244.449C334.947 243.917 337.839 242.753 339.726 242.357C341.989 241.883 349.601 238.465 351.348 239.79C351.209 240.267 351.307 240.152 351.018 240.464C349.288 242.337 347.79 244.5 345.987 246.283C334.451 257.691 319.786 267.233 304.694 273.213C300.088 275.037 295.182 276.652 290.347 277.752C286.872 278.543 283.305 278.953 279.802 279.605C276.446 280.229 273.155 281.091 269.825 281.828C260.111 283.978 244.079 287.08 237.65 295.352C236.991 296.199 236.299 297.377 236.565 298.497C236.698 299.061 237.073 299.476 237.559 299.763C243.526 303.287 275.538 290.824 282.495 288.529C284.661 287.815 286.9 287.269 289.11 286.704C291.375 286.235 294.207 285.379 296.458 284.73C297.889 284.683 302.429 283.088 303.398 284.208C302.98 285.914 296.878 290.008 295.211 291.158C280.718 301.053 264.935 308.909 248.303 314.508C245.773 315.36 242.851 315.894 240.42 316.8C232.59 319.65 224.525 321.429 216.418 323.371C208.617 325.24 200.306 326.064 192.42 327.685C189.379 328.31 180.873 328.283 178.817 330.37L178.996 330.728C180.578 331.248 182.082 331.102 183.694 331.015C197.599 330.261 211.208 329.679 224.762 326.173C228.392 325.345 232.057 325.018 235.675 324.106C264.245 316.902 292.027 303.913 314.731 285.005C316.766 283.31 319.136 280.713 320.528 278.454C321.56 276.727 322.703 272.501 324.418 271.367C336.418 263.428 348.607 254.894 358.358 244.205C361.394 240.877 368.273 233.276 366.547 228.483C366.116 227.285 364.012 226.877 362.897 226.59C365.542 224.194 367.849 223.002 370.757 221.017L382.642 212.783C392.194 206.11 401.278 198.79 409.83 190.877C412.411 188.488 427.187 174.855 423.742 171.152C421.055 170.204 417.211 170.812 414.581 171.78C391.781 180.17 370.528 191.965 348.373 201.835C328.727 210.587 308.811 218.737 289.106 227.352L256.853 241.595C248.936 245.15 241.342 248.783 233.257 252.14C232.969 246.361 231.69 241.47 226.657 238.11C223.115 235.746 219.564 235.661 215.484 235.313C217.184 232.423 218.776 232.155 221.325 229.869C229.434 222.435 242.46 213.267 245.558 202.393C248.267 192.89 238.784 188.439 230.886 189.807C226.865 190.175 223.375 191.377 219.567 192.59C198.316 199.358 181.726 212.102 163.727 224.654ZM273.873 296.63C264.317 298.859 244.989 307.686 234.517 303.228C233.325 302.721 231.468 300.6 231.401 299.27C231.107 296.778 232.506 293.856 234.088 291.975C241.162 283.566 254.307 280.318 264.633 277.736C269.224 276.588 272.366 275.607 277.126 274.808C280.433 274.254 284.689 273.649 287.788 272.964C292.481 271.926 299.508 270.083 303.844 268.315C312.832 264.652 321.89 259.566 329.62 253.67C331.885 251.943 333.869 249.888 336.168 248.144C333.012 249.117 329.756 249.74 326.616 250.729C322.546 252.011 318.322 253.863 314.393 255.572C303.958 260.114 267.717 280.052 258.134 274.864C256.652 274.061 255.264 272.657 254.798 271.006C254.168 268.769 255.251 266.431 256.4 264.549C258.449 261.193 261.588 258.465 264.882 256.374C269.972 253.143 276.151 250.76 281.756 248.583C287.682 246.28 293.684 243.954 299.725 241.979C310.337 238.508 321.117 235.373 331.273 230.657C335.862 228.526 340.229 225.856 344.625 223.361C348.791 220.996 353 218.783 357.074 216.25C362.491 212.882 367.623 209.144 372.76 205.377C375.542 203.337 378.472 201.49 381.094 199.24C359.849 208.118 339.201 219.611 317.598 227.967C308.351 231.544 298.862 236.29 289.644 240.127L267.508 249.54C258.468 253.363 244.45 258.762 236.132 264.133C233.674 267.286 231.957 272.901 230.115 276.229C228.213 279.666 226.433 282.618 224.441 285.652C214.575 300.677 202.147 310.845 188.955 322.663C212.932 320.831 253.317 310.13 274.26 297.783C275.492 297.226 279.094 295.728 279.671 294.683C278.398 294.661 275.147 296.118 273.873 296.63Z"/><path fill="#0C9A5B" d="M233.257 252.14C241.342 248.783 248.936 245.15 256.853 241.595L289.106 227.352C308.811 218.737 328.727 210.587 348.373 201.835C370.528 191.965 391.781 180.17 414.581 171.78C417.211 170.812 421.055 170.204 423.742 171.152C427.187 174.855 412.411 188.488 409.83 190.877C401.278 198.79 392.194 206.11 382.642 212.783L370.757 221.017C367.849 223.002 365.542 224.194 362.897 226.59C364.012 226.877 366.116 227.285 366.547 228.483C368.273 233.276 361.394 240.877 358.358 244.205C348.607 254.894 336.418 263.428 324.418 271.367C322.703 272.501 321.56 276.727 320.528 278.454C319.136 280.713 316.766 283.31 314.731 285.005C292.027 303.913 264.245 316.902 235.675 324.106C232.057 325.018 228.392 325.345 224.762 326.173C211.208 329.679 197.599 330.261 183.694 331.015C182.082 331.102 180.578 331.248 178.996 330.728L178.817 330.37C180.873 328.283 189.379 328.31 192.42 327.685C200.306 326.064 208.617 325.24 216.418 323.371C224.525 321.429 232.59 319.65 240.42 316.8C242.851 315.894 245.773 315.36 248.303 314.508C264.935 308.909 280.718 301.053 295.211 291.158C296.878 290.008 302.98 285.914 303.398 284.208C302.429 283.088 297.889 284.683 296.458 284.73C294.207 285.379 291.375 286.235 289.11 286.704C286.9 287.269 284.661 287.815 282.495 288.529C275.538 290.824 243.526 303.287 237.559 299.763C237.073 299.476 236.698 299.061 236.565 298.497C236.299 297.377 236.991 296.199 237.65 295.352C244.079 287.08 260.111 283.978 269.825 281.828C273.155 281.091 276.446 280.229 279.802 279.605C283.305 278.953 286.872 278.543 290.347 277.752C295.182 276.652 300.088 275.037 304.694 273.213C319.786 267.233 334.451 257.691 345.987 246.283C347.79 244.5 349.288 242.337 351.018 240.464C351.307 240.152 351.209 240.267 351.348 239.79C349.601 238.465 341.989 241.883 339.726 242.357C337.839 242.753 334.947 243.917 332.904 244.449C309.909 250.436 290.006 265.411 266.642 270.283C264.739 270.68 260.107 271.955 259.261 269.647C259.513 267.097 262.333 264.652 264.21 263.116C266.835 260.968 269.717 259.557 272.73 258.03C288.17 250.207 304.981 246.114 321.134 240.158C344.925 231.386 370.565 214.093 390.209 198.143C395.932 193.497 401.851 188.767 406.632 183.117C401.786 184.085 398.577 186.234 394.142 188.213C377.54 195.623 361.351 203.881 344.787 211.431C329.932 218.332 314.945 224.944 299.833 231.264C289.515 235.634 279.078 239.682 268.828 244.225C263.688 246.503 233.612 258.798 231.86 261.614C230.645 263.568 230.31 266.025 229.35 268.113C226.524 274.255 223.267 280.407 219.233 285.851C212.904 294.418 205.68 302.287 197.685 309.326C174.086 330.423 130.988 356.955 100.315 365.502C95.6933 366.79 85.7374 368.646 81.3862 366.217C80.1699 365.538 79.2182 364.501 78.8644 363.132C78.0955 360.155 80.461 356.207 81.9918 353.776C83.1726 351.901 84.6028 350.193 86.0086 348.484L85.3107 347.781C82.7123 350.524 77.6787 354.811 74.498 356.87C50.7408 372.248 54.1613 354.826 61.8651 338.806C77.0046 307.324 99.5675 282.937 124.201 258.739C127.509 255.494 130.964 252.403 134.554 249.474C143.963 241.692 146.761 240.622 149.544 228.35C137.826 234.95 128.598 241.02 115.493 245.35C104.51 248.978 76.4603 257.226 79.9716 235.76C83.9905 211.19 117.808 186.468 140.162 179.911C149.031 176.897 156.568 174.952 166.05 175.553C168.753 175.725 173.726 175.692 175.936 177.459L175.933 177.872C173.663 179.473 164.336 179.051 160.949 179.245C152.112 179.754 147.724 182.462 140.004 185.196C136.338 187.358 131.831 189.311 128.532 191.374C116.564 198.855 99.4424 210.489 95.1001 224.724C90.5403 239.673 101.905 240.575 112.474 237.818C124.608 234.573 136.12 229.339 146.541 222.328C148.939 220.737 151.718 218.746 153.699 216.743C158.502 211.889 162.01 205.566 168.817 203.193C169.907 202.813 171.16 202.362 172.347 202.571C172.875 202.664 172.729 202.676 173.152 203.111C173.464 207.098 167.587 214.005 165.835 217.568C164.893 219.485 164.151 222.55 163.727 224.654C181.726 212.102 198.316 199.358 219.567 192.59C223.375 191.377 226.865 190.175 230.886 189.807C238.784 188.439 248.267 192.89 245.558 202.393C242.46 213.267 229.434 222.435 221.325 229.869C218.776 232.155 217.184 232.423 215.484 235.313C219.564 235.661 223.115 235.746 226.657 238.11C231.69 241.47 232.969 246.361 233.257 252.14ZM122.908 310.568C129.001 307.379 136.528 301.544 142.599 297.602C154.182 290.091 165.979 282.918 177.977 276.091C186.451 271.215 195.231 266.812 203.734 261.988C207.087 260.087 211.061 259.059 213.675 256.311C212.906 254.466 212.187 252.368 210.221 251.366C198.496 246.561 187.525 262.291 176.661 264.68C173.308 265.649 165.489 266.209 165.12 260.994C164.085 246.343 186.668 240.419 195.912 234.273C206.92 226.953 216.897 219.462 225.321 209.619C226.09 208.721 226.886 205.935 225.192 205.618C220.938 204.58 215.07 206.584 210.811 208.246C196.119 213.981 183.019 224.099 170.573 233.623C168.784 234.992 163.42 238.956 162.44 240.318C155.843 249.496 150.941 260.115 145.195 269.878C140.902 277.234 136.547 284.553 132.128 291.834C127.756 298.91 125.162 302.238 121.35 309.812C121.994 310.442 122.047 310.386 122.908 310.568ZM100.88 350.879C122.677 348.22 162.095 322.925 179.884 308.985C186.322 303.94 194.588 296.014 199.756 289.595C199.917 289.395 206.656 279.572 206.654 279.576L206.462 279.375C204.08 281.126 201.301 281.614 198.718 283.024C165 301.435 131.294 321.041 103.14 347.472C102.422 348.146 100.986 349.587 100.649 350.411L100.88 350.879ZM71.0549 351.176C92.1314 334.487 112.258 298.485 126.262 275.405C128.677 271.424 133.433 264 134.809 259.36C134.887 259.097 134.796 259.095 134.564 258.871C114.14 275.935 73.2676 323.353 70.797 349.824C70.7436 350.395 70.7397 350.696 71.0549 351.176Z"/><path d="M90.3897 342.779C115.725 313.557 134.553 280.193 153.366 246.731C154.884 244.03 156.303 241.055 157.994 238.473C161.33 235.057 165.681 232.096 169.512 229.154C181.89 219.667 195.099 209.782 209.677 204.021C213.391 202.553 217.582 201.54 221.461 201.3C237.512 200.307 231.113 212.018 223.704 218.663C216.01 225.564 208.751 231.952 200.01 237.623C191.138 244.435 173.405 247.475 169.954 259.176C169.891 259.526 170.124 260.35 170.446 260.464C177.336 262.89 187.384 253.72 192.905 250.469C202.785 244.65 216.481 242.598 218.263 257.65C218.332 258.266 218.373 258.885 218.385 259.505C214.404 262.344 210.757 264.016 206.449 266.257C177.761 281.181 149.783 297.423 123.714 316.623C116.067 322.255 108.295 327.619 101.287 334.071C98.8105 336.36 93.0364 340.902 90.9858 343.154L90.3897 342.779ZM122.908 310.568C129.001 307.379 136.528 301.544 142.599 297.602C154.182 290.091 165.979 282.918 177.977 276.091C186.451 271.215 195.231 266.812 203.734 261.988C207.087 260.087 211.061 259.059 213.675 256.311C212.906 254.466 212.187 252.368 210.221 251.366C198.496 246.561 187.525 262.291 176.661 264.68C173.308 265.649 165.489 266.209 165.12 260.994C164.085 246.343 186.668 240.419 195.912 234.273C206.92 226.953 216.897 219.462 225.321 209.619C226.09 208.721 226.886 205.935 225.192 205.618C220.938 204.58 215.07 206.584 210.811 208.246C196.119 213.981 183.019 224.099 170.573 233.623C168.784 234.992 163.42 238.956 162.44 240.318C155.843 249.496 150.941 260.115 145.195 269.878C140.902 277.234 136.547 284.553 132.128 291.834C127.756 298.91 125.162 302.238 121.35 309.812C121.994 310.442 122.047 310.386 122.908 310.568Z"/><path fill="#0C9A5B" d="M140.162 179.911C149.031 176.897 156.568 174.952 166.05 175.553C168.753 175.725 173.726 175.692 175.936 177.459L175.933 177.872C173.663 179.473 164.336 179.051 160.949 179.245C152.112 179.754 147.724 182.462 140.004 185.196C141.272 183.441 150.133 180.614 152.527 179.782C152.779 179.179 152.321 177.851 152.075 177.204C149.261 176.706 143.871 180.329 140.162 179.911Z"/><path fill="#0C9A5B" d="M90.3897 342.779L90.9858 343.154C88.7479 344.866 87.7968 346.346 86.0086 348.484L85.3107 347.781C86.962 345.926 88.5471 344.444 90.3897 342.779Z"/><path d="M216.3 268.916L216.738 269.058C216.991 269.599 217.032 270.107 216.789 270.693C203.956 301.549 172.881 321.777 145.186 337.903C134.393 344.187 106.168 358.718 95.0198 355.682C93.6001 354.738 92.7692 353.58 93.8315 351.945C98.9499 344.065 107.028 337.738 114.339 331.981C126.625 322.215 139.421 313.107 152.673 304.697C168.094 295.132 183.847 286.111 199.901 277.652C202.768 276.111 214.074 269.519 216.3 268.916ZM100.88 350.879C122.677 348.22 162.095 322.925 179.884 308.985C186.322 303.94 194.588 296.014 199.756 289.595C199.917 289.395 206.656 279.572 206.654 279.576L206.462 279.375C204.08 281.126 201.301 281.614 198.718 283.024C165 301.435 131.294 321.041 103.14 347.472C102.422 348.146 100.986 349.587 100.649 350.411L100.88 350.879Z"/><path d="M134.564 258.871C134.796 259.095 134.887 259.097 134.809 259.36C133.433 264 128.677 271.424 126.262 275.405C112.258 298.485 92.1314 334.487 71.0549 351.176C70.7397 350.696 70.7436 350.395 70.797 349.824C73.2676 323.353 114.14 275.935 134.564 258.871ZM78.5693 337.227C82.0595 334.538 85.9483 328.889 88.5824 325.31C95.8277 315.464 102.722 305.495 108.781 294.872C109.368 293.843 109.863 292.64 110.451 291.664L109.996 290.948C102.377 299.02 92.3963 312.406 86.7693 322.136C85.2238 324.767 83.7392 327.432 82.3168 330.131C80.8937 332.87 80.349 334.603 78.5693 337.227Z"/><path fill="#28272D" fill-opacity="0.0078431377" d="M109.996 290.948L110.451 291.664C109.863 292.64 109.368 293.843 108.781 294.872C102.722 305.495 95.8277 315.464 88.5824 325.31C85.9483 328.889 82.0595 334.538 78.5693 337.227C80.349 334.603 80.8937 332.87 82.3168 330.131C83.7392 327.432 85.2238 324.767 86.7693 322.136C92.3963 312.406 102.377 299.02 109.996 290.948Z"/><path d="M313.643 246.663C314.251 246.717 314.02 246.575 314.393 247.013C312.505 249.477 283.565 261.477 279.308 262.52C278.759 262.299 278.785 262.298 278.333 261.908L278.556 261.448C283.881 257.947 291.379 255.431 297.221 253.036C302.606 250.828 308.124 248.515 313.643 246.663Z"/><path fill="#0C9A5B" d="M221.293 275.123C222.584 275.037 223.426 274.808 224.408 275.453C224.626 276.13 224.452 276.412 224.234 277.095C223.001 276.872 221.581 276.423 221.293 275.123Z"/><path fill="#0C9A5B" d="M250.283 231.387C251.294 231.539 251.554 231.585 252.244 232.299C253.224 236.689 241.488 239.829 240.903 240.983L241.263 241.349L241.666 241.905L241.455 242.132L240.842 241.873C237.798 238.248 243.247 233.807 246.245 232.381C247.925 231.582 248.491 231.53 250.283 231.387Z"/><path fill="#4C4550" fill-opacity="0.019607844" d="M273.873 296.63C275.147 296.118 278.398 294.661 279.671 294.683C279.094 295.728 275.492 297.226 274.26 297.783C274.192 296.914 274.346 297.275 273.873 296.63Z"/></svg>